<?xml version="1.0" encoding="UTF-8"?>
<!DOCTYPE svg PUBLIC "-//W3C//DTD SVG 1.1//EN" "http://www.w3.org/Graphics/SVG/1.1/DTD/svg11.dtd">
<!-- Creator: CorelDRAW X7 -->
<svg xmlns="http://www.w3.org/2000/svg" xml:space="preserve" width="37mm" height="33mm" version="1.1" style="shape-rendering:geometricPrecision; text-rendering:geometricPrecision; image-rendering:optimizeQuality; fill-rule:evenodd; clip-rule:evenodd"
viewBox="0 0 3700 3300"
 xmlns:xlink="http://www.w3.org/1999/xlink">
 <defs>
  <style type="text/css">
   <![CDATA[
    .fil0 {fill:#D2D3D5}
    .fil1 {fill:#00AFEF}
   ]]>
  </style>
 </defs>
 <g id="Capa_x0020_1">
  <metadata id="CorelCorpID_0Corel-Layer"/>
  <g id="_714240984">
   <path class="fil0" d="M1850 2155c112,0 203,91 203,203 0,113 -91,204 -203,204 -112,0 -203,-91 -203,-204 0,-112 91,-203 203,-203zm1594 -2125c112,0 203,91 203,204 0,112 -91,203 -203,203 -113,0 -204,-91 -204,-203 0,-113 91,-204 204,-204zm-3188 708c113,0 204,91 204,204 0,112 -91,203 -204,203 -112,0 -203,-91 -203,-203 0,-113 91,-204 203,-204zm532 0c112,0 203,91 203,204 0,112 -91,203 -203,203 -113,0 -204,-91 -204,-203 0,-113 91,-204 204,-204zm531 0c112,0 203,91 203,204 0,112 -91,203 -203,203 -113,0 -204,-91 -204,-203 0,-113 91,-204 204,-204zm531 0c112,0 203,91 203,204 0,112 -91,203 -203,203 -112,0 -203,-91 -203,-203 0,-113 91,-204 203,-204zm531 0c113,0 204,91 204,204 0,112 -91,203 -204,203 -112,0 -203,-91 -203,-203 0,-113 91,-204 203,-204zm531 0c113,0 204,91 204,204 0,112 -91,203 -204,203 -112,0 -203,-91 -203,-203 0,-113 91,-204 203,-204zm-2656 709c113,0 204,91 204,203 0,112 -91,203 -204,203 -112,0 -203,-91 -203,-203 0,-112 91,-203 203,-203zm0 1416c113,0 204,91 204,203 0,113 -91,204 -204,204 -112,0 -203,-91 -203,-204 0,-112 91,-203 203,-203zm532 0c112,0 203,91 203,203 0,113 -91,204 -203,204 -113,0 -204,-91 -204,-204 0,-112 91,-203 204,-203zm0 -708c112,0 203,91 203,203 0,113 -91,204 -203,204 -113,0 -204,-91 -204,-204 0,-112 91,-203 204,-203zm0 -708c112,0 203,91 203,203 0,112 -91,203 -203,203 -113,0 -204,-91 -204,-203 0,-112 91,-203 204,-203zm1062 -1417c112,0 203,91 203,204 0,112 -91,203 -203,203 -112,0 -203,-91 -203,-203 0,-113 91,-204 203,-204zm531 0c113,0 204,91 204,204 0,112 -91,203 -204,203 -112,0 -203,-91 -203,-203 0,-113 91,-204 203,-204zm531 0c113,0 204,91 204,204 0,112 -91,203 -204,203 -112,0 -203,-91 -203,-203 0,-113 91,-204 203,-204zm-2656 0c113,0 204,91 204,204 0,112 -91,203 -204,203 -112,0 -203,-91 -203,-203 0,-113 91,-204 203,-204zm1063 1417c112,0 203,91 203,203 0,112 -91,203 -203,203 -113,0 -204,-91 -204,-203 0,-112 91,-203 204,-203zm0 708c112,0 203,91 203,203 0,113 -91,204 -203,204 -113,0 -204,-91 -204,-204 0,-112 91,-203 204,-203zm0 708c112,0 203,91 203,203 0,113 -91,204 -203,204 -113,0 -204,-91 -204,-204 0,-112 91,-203 204,-203zm531 -1416c112,0 203,91 203,203 0,112 -91,203 -203,203 -112,0 -203,-91 -203,-203 0,-112 91,-203 203,-203zm1594 0c112,0 203,91 203,203 0,112 -91,203 -203,203 -113,0 -204,-91 -204,-203 0,-112 91,-203 204,-203zm0 1416c112,0 203,91 203,203 0,113 -91,204 -203,204 -113,0 -204,-91 -204,-204 0,-112 91,-203 204,-203zm-532 0c113,0 204,91 204,203 0,113 -91,204 -204,204 -112,0 -203,-91 -203,-204 0,-112 91,-203 203,-203zm-531 0c113,0 204,91 204,203 0,113 -91,204 -204,204 -112,0 -203,-91 -203,-204 0,-112 91,-203 203,-203zm1063 -708c112,0 203,91 203,203 0,113 -91,204 -203,204 -113,0 -204,-91 -204,-204 0,-112 91,-203 204,-203zm-532 0c113,0 204,91 204,203 0,113 -91,204 -204,204 -112,0 -203,-91 -203,-204 0,-112 91,-203 203,-203zm-531 0c113,0 204,91 204,203 0,113 -91,204 -204,204 -112,0 -203,-91 -203,-204 0,-112 91,-203 203,-203zm531 -708c113,0 204,91 204,203 0,112 -91,203 -204,203 -112,0 -203,-91 -203,-203 0,-112 91,-203 203,-203zm-531 0c113,0 204,91 204,203 0,112 -91,203 -204,203 -112,0 -203,-91 -203,-203 0,-112 91,-203 203,-203zm-1062 -1417c112,0 203,91 203,204 0,112 -91,203 -203,203 -113,0 -204,-91 -204,-203 0,-113 91,-204 204,-204z"/>
   <path class="fil1" d="M1850 2863c112,0 203,91 203,203 0,113 -91,204 -203,204 -112,0 -203,-91 -203,-204 0,-112 91,-203 203,-203zm1594 -2125c112,0 203,91 203,204 0,112 -91,203 -203,203 -113,0 -204,-91 -204,-203 0,-113 91,-204 204,-204zm-2656 -708c112,0 203,91 203,204 0,112 -91,203 -203,203 -113,0 -204,-91 -204,-203 0,-113 91,-204 204,-204zm-532 2125c113,0 204,91 204,203 0,113 -91,204 -204,204 -112,0 -203,-91 -203,-204 0,-112 91,-203 203,-203z"/>
  </g>
 </g>
</svg>
