<svg viewBox="0 0 175 208" fill="none" xmlns="http://www.w3.org/2000/svg">
<path d="M128.171 10.6552C107.988 -0.43095 84.2597 -2.98585 62.2065 3.5526C40.1532 10.0911 21.5815 25.1873 10.5769 45.5202C-0.427776 65.8532 -2.96388 89.7573 3.52646 111.974C10.0168 134.191 25.0019 152.9 45.1853 163.986V164.064L129.316 208L140.285 186.694L62.9305 143.896C62.0332 143.491 61.1358 143.055 60.254 142.587C47.5852 135.982 37.622 125.103 32.1044 111.85C26.5867 98.5981 25.8651 83.8143 30.0655 70.0806C34.266 56.3468 43.1216 44.5358 55.086 36.7099C67.0505 28.8839 81.3635 25.5404 95.5258 27.2631C109.688 28.9859 122.8 35.6653 132.571 46.1353C142.343 56.6052 148.153 70.2002 148.988 84.5465C149.823 98.8927 145.629 113.079 137.139 124.627C128.649 136.175 116.402 144.353 102.536 147.731L131.266 164.002C144.808 156.225 156.017 144.912 163.711 131.255C171.405 117.598 175.299 102.102 174.982 86.4016C174.665 70.7013 170.15 55.378 161.911 42.0469C153.673 28.7157 142.016 17.8708 128.171 10.6552Z" fill="#000006"/>
</svg>
