<svg xmlns="http://www.w3.org/2000/svg" xmlns:xlink="http://www.w3.org/1999/xlink" id="Layer_1" data-name="Layer 1" viewBox="0 0 380.98 347.98"><defs><clipPath id="clip-path"><rect x="23.22" y="47.3" width="319.34" height="282.86" fill="none"></rect></clipPath><clipPath id="clip-path-2"><path d="M247.72,47.3H118.07a30.19,30.19,0,0,0-26.1,15L27.31,173.56a30.19,30.19,0,0,0,0,30.34L92,315.14a30.19,30.19,0,0,0,26.1,15H247.72a30.19,30.19,0,0,0,26.1-15L338.48,203.9a30.19,30.19,0,0,0,0-30.34L273.83,62.32a30.19,30.19,0,0,0-26.1-15" fill="none"></path></clipPath><linearGradient id="linear-gradient" x1="-983.05" y1="-975.2" x2="-982.05" y2="-975.2" gradientTransform="matrix(319.34, 0, 0, -319.34, 313952.52, -311232.91)" gradientUnits="userSpaceOnUse"><stop offset="0" stop-color="#4a4e55"></stop><stop offset="1" stop-color="#7c8087"></stop></linearGradient></defs><title>COSITOS2</title><g opacity="0.5"><g clip-path="url(#clip-path)"><g clip-path="url(#clip-path-2)"><rect x="21.86" y="47.3" width="322.07" height="282.86" fill="url(#linear-gradient)"></rect></g></g></g><path d="M262.33,19.88H123.05A30.19,30.19,0,0,0,96.91,35L27.27,155.6a30.19,30.19,0,0,0,0,30.19L96.91,306.4a30.19,30.19,0,0,0,26.15,15.1H262.33a30.19,30.19,0,0,0,26.15-15.1l69.64-120.62a30.19,30.19,0,0,0,0-30.19L288.47,35a30.19,30.19,0,0,0-26.15-15.1" fill="#553f30"></path><path d="M261.3,13.45H124.09a30.19,30.19,0,0,0-26.15,15.1L29.33,147.37a30.19,30.19,0,0,0,0,30.19L97.94,296.4a30.19,30.19,0,0,0,26.15,15.1H261.3a30.19,30.19,0,0,0,26.15-15.1L356,177.57a30.19,30.19,0,0,0,0-30.19L287.44,28.55a30.19,30.19,0,0,0-26.15-15.1" fill="#8e9e66" stroke="#8e9e66" stroke-miterlimit="10" stroke-width="0.5"></path><path d="M243.95,148.47c-16.29,10.83-69.43,51.94-123.5,36-37.87-11.16-89.65-75-94.67-21-.28,3,1.56,7,3,10.5,2.67,6.5,29.55,49.4,29.77,52.92l41,70.93a29.69,29.69,0,0,0,25.71,14.84H260.13a29.69,29.69,0,0,0,25.71-14.84L360.45,169C342.08,134,272.48,129.5,243.95,148.47Z" fill="#697051" opacity="0.4"></path><path d="M136.42,172.18a39.56,39.56,0,0,1,1.76-12.3,24.54,24.54,0,0,1,32-14.53V114.83A30.18,30.18,0,0,0,135.38,128V114.49H105.1V216.9h31.32Z" fill="#fff"></path><path d="M230,54.5a48.08,48.08,0,0,1,48.08,48.08v5.7l-12,8.08a6.5,6.5,0,0,1-7.24,0l-12-8.08v-5.7a16.78,16.78,0,0,0-33.57,0v12.86L201,107.2a6,6,0,0,0-6.74,0l-12.28,8.24V102.58A48.08,48.08,0,0,1,230,54.5" fill="#fff" opacity="0.54"></path><path d="M265.84,128.38a6.06,6.06,0,0,1-6.75,0l-12.28-8.25v53.79c0,10.31-6.6,17.52-17.1,17.52-11.12,0-16.48-7.83-16.48-17.72V127.42l-12-8.09a6.49,6.49,0,0,0-7.24,0l-12,8.09V180.3c0,21.84,14,40,38.95,40,9.16,0,19.45-2.95,25.39-9.83v9.45l12.61,8.46a6.49,6.49,0,0,0,7.24,0l12-8.08V120.12Z" fill="#fff"></path></svg>