<?xml version="1.0" encoding="UTF-8"?>
<svg width="700pt" height="550pt" version="1.1" viewBox="0 0 700 550" xmlns="http://www.w3.org/2000/svg" xmlns:xlink="http://www.w3.org/1999/xlink">
 <g>
  <path d="m589.12 221.76c0-5.0391-0.55859-7.8398-0.55859-9.5195 0-1.1211-0.55859-1.6797-1.6797-2.2383-1.1211-0.55859-2.8008-1.1211-5.6016-1.1211-1.1211 0-2.8008-0.55859-5.0391-0.55859-5.6016-1.1211-9.5195-1.6797-11.199-1.6797-7.2812-1.6797-17.359-3.3594-23.52-3.9219-16.801-2.8008-31.922-3.9219-38.078-3.9219-21.84-1.1211-38.641-0.55859-45.359 0-10.078 0.55859-18.48 1.6797-21.84 1.6797-6.1602 0.55859-11.762 1.6797-19.039 2.8008 0 0-16.238 3.3594-35.84 9.5195-0.55859 0-3.3594 1.1211-6.7188 2.2383-0.55859 0-4.4805 1.1211-7.8398 1.6797-6.7188 1.6797-15.121 1.6797-19.039 1.6797-3.9219 0-11.762-0.55859-19.039-1.6797-3.3594-0.55859-7.2812-1.6797-7.8398-1.6797-3.3594-1.1211-6.1602-1.6797-6.7188-2.2383-19.602-6.7188-35.84-9.5195-35.84-9.5195-7.2812-1.1211-12.32-2.2383-19.039-2.8008-3.3594-0.55859-11.199-1.1211-21.84-1.6797-6.7188-0.55859-23.52-1.1211-45.359 0-6.1602 0.55859-20.719 1.1211-38.078 3.9219-6.1602 1.1211-16.238 2.8008-23.52 3.9219-1.1211 0-5.6016 1.1211-11.199 1.6797-2.2383 0.55859-3.9219 0.55859-5.0391 0.55859-2.8008 0.55859-4.4805 1.1211-5.6016 1.1211 1.1055 0.55469 0.54297 1.1172 0.54297 2.2344 0 1.1211-0.55859 4.4805-0.55859 9.5195 0 8.3984 0.55859 17.359 0.55859 17.359 0.55859 0.55859 1.1211 2.2383 2.2383 2.8008 1.6797 1.1211 3.3594 1.1211 3.9219 1.6797h1.6797c0.55859 0 2.2383 0.55859 3.9219 1.1211 1.6797 1.1211 2.8008 2.2383 2.8008 3.3594 1.1211 1.6797 1.6797 3.9219 1.6797 4.4805 0.55859 4.4805 2.2383 15.121 2.8008 17.922 0 1.6797 0.55859 3.3594 1.1211 6.1602 1.1211 4.4805 2.2383 12.32 5.0391 22.398 3.9219 14.559 8.3984 24.078 8.9609 26.32 1.6797 4.4805 2.8008 6.7188 5.0391 9.5195 5.0391 7.8398 11.199 12.879 14 14.559 6.1602 4.4805 11.199 6.1602 12.32 6.7188 1.6797 0.55859 3.3594 1.1211 4.4805 1.6797 12.879 3.3594 25.762 4.4805 25.762 4.4805 19.039 1.6797 33.039 0.55859 40.879-0.55859 5.0391-0.55859 10.641-1.1211 17.359-2.8008 2.8008-0.55859 6.1602-1.6797 10.078-3.3594 8.9609-3.9219 15.121-8.3984 16.801-10.078 2.2383-1.6797 6.1602-5.0391 9.5195-10.641 0.55859-0.55859 1.1211-2.2383 3.3594-5.0391 3.9219-7.2812 6.1602-12.879 7.2812-14.559 6.7188-15.121 10.078-22.961 12.879-30.238 0 0 3.3594-9.5195 6.7188-20.16 1.1211-3.9219 2.2383-7.8398 2.2383-7.8398v-0.55859c1.1211-3.9219 5.0391-6.7188 6.1602-7.2812 4.4805-3.3594 9.5195-3.3594 10.641-3.3594s6.1602 0 10.641 3.3594c1.1211 0.55859 4.4805 3.3594 6.1602 7.2812v0.55859s1.1211 3.3594 2.2383 7.8398c3.3594 10.641 6.7188 20.16 6.7188 20.16 2.8008 7.2812 6.1602 15.121 12.879 30.238 0.55859 1.6797 3.3594 7.8398 7.2812 14.559 1.6797 3.3594 2.8008 4.4805 3.3594 5.0391 3.9219 5.6016 7.8398 8.9609 9.5195 10.641 1.6797 1.6797 7.8398 6.1602 16.801 10.078 3.9219 1.6797 7.2812 2.2383 10.078 3.3594 6.7188 1.6797 11.762 2.2383 17.359 2.8008 7.8398 0.55859 21.84 1.6797 40.879 0.55859 0 0 12.879-1.1211 25.762-4.4805 1.1211-0.55859 2.8008-0.55859 4.4805-1.6797 1.1211-0.55859 6.1602-2.2383 12.32-6.7188 2.8008-2.2383 8.9609-6.7188 14-14.559 1.6797-2.8008 2.8008-5.0391 5.0391-9.5195 1.1211-2.2383 5.0391-11.762 8.9609-26.32 2.8008-10.078 4.4805-17.922 5.0391-22.398 0.55859-2.8008 1.1211-4.4805 1.1211-6.1602 0.55859-2.8008 2.2383-13.441 2.8008-17.922 0-0.55859 0.55859-2.8008 1.6797-4.4805 0.55859-0.55859 1.1211-2.2383 2.8008-3.3594s3.3594-1.1211 3.9219-1.1211h1.6797c1.1211 0 2.8008-0.55859 3.9219-1.6797 1.1211-1.1211 1.6797-2.2383 2.2383-2.8008 0 0.003906 1.1211-8.957 0.5625-17.355zm-273.84 29.117c-0.55859 9.5195-1.6797 15.121-1.6797 15.121-1.1211 6.1602-2.8008 14-6.1602 25.199-2.2383 7.2812-4.4805 14.559-8.9609 24.078-5.0391 10.641-9.5195 15.68-10.641 16.801-2.2383 2.8008-6.1602 6.7188-11.762 10.078-5.0391 3.3594-10.078 4.4805-13.441 5.6016-3.9219 1.1211-6.7188 1.6797-10.641 2.2383-2.8008 0.55859-6.7188 1.1211-12.32 1.6797-11.762 1.1211-21.281 0.55859-25.762 0.55859-15.121-0.55859-24.078-2.8008-25.762-3.3594-4.4805-1.1211-6.1602-1.6797-7.8398-2.2383-2.8008-1.1211-10.078-3.9219-16.238-11.199-1.6797-2.2383-2.8008-3.9219-4.4805-6.1602-0.55859-1.1211-2.8008-4.4805-5.0391-8.9609-0.55859-1.6797-3.9219-8.3984-7.2812-21.84-1.1211-5.0391-2.8008-11.199-3.9219-19.602-1.6797-11.199-1.6797-21.281-1.6797-28.559v-1.1211c0-2.8008 0.55859-13.441 8.3984-22.961 6.7188-7.8398 15.121-9.5195 18.48-10.078 1.1211 0 1.6797-0.55859 2.2383-0.55859 22.398-3.3594 36.398-4.4805 36.398-4.4805 8.9609-0.55859 22.398-0.55859 39.199 0.55859 2.2383 0 27.441 2.2383 49.84 10.641 3.9219 1.6797 12.32 5.0391 15.68 11.762 2.2383 4.4805 2.8008 9.5195 2.8008 9.5195 1.1328 3.3633 1.1328 5.043 0.57422 7.2812zm239.68 0c0 7.2812 0 17.359-1.6797 28.559-1.1211 8.3984-2.8008 14.559-3.9219 19.602-3.3594 13.441-6.1602 20.16-7.2812 21.84-2.2383 4.4805-4.4805 8.3984-5.0391 8.9609-1.1211 2.2383-2.8008 3.9219-4.4805 6.1602-6.1602 7.2812-13.441 10.078-16.238 11.199-1.6797 0.55859-3.9219 1.1211-7.8398 2.2383-2.2383 0.55859-11.199 2.2383-25.762 3.3594-4.4805 0-14.559 0.55859-25.762-0.55859-5.6016-0.55859-9.5195-1.1211-12.32-1.6797-3.9219-0.55859-6.7188-1.1211-10.641-2.2383-3.3594-1.1211-7.8398-2.2383-13.441-5.6016-6.1602-3.3594-9.5195-7.2812-11.762-10.078-1.1211-1.1211-5.6016-6.1602-10.641-16.801-4.4805-9.5195-6.7188-16.801-8.9609-24.078-3.3594-11.199-5.0391-19.039-6.1602-25.199 0 0-1.1211-5.6016-1.6797-15.121 0-2.2383-0.55859-3.9219 0-6.1602 0 0 0.55859-5.0391 2.8008-9.5195 3.3594-6.7188 11.762-10.078 15.68-11.762 22.398-8.3984 47.602-10.641 49.84-10.641 16.801-1.1211 30.238-1.1211 39.199-0.55859 0 0 14 0.55859 36.398 4.4805 0.55859 0 1.1211 0 2.2383 0.55859 2.8008 0.55859 11.199 2.8008 18.48 10.078 8.3984 8.9609 8.3984 20.16 8.3984 22.961 0.57422-1.1172 0.57422-0.55859 0.57422 0z"/>
 </g>
</svg>
