<?xml version="1.0" standalone="no"?>
<!DOCTYPE svg PUBLIC "-//W3C//DTD SVG 20010904//EN"
 "http://www.w3.org/TR/2001/REC-SVG-20010904/DTD/svg10.dtd">
<svg version="1.0" xmlns="http://www.w3.org/2000/svg"
 width="512.000000pt" height="512.000000pt" viewBox="0 0 512.000000 512.000000"
 preserveAspectRatio="xMidYMid meet">

<g transform="translate(0.000000,512.000000) scale(0.100000,-0.100000)"
fill="#000000" stroke="none">
<path d="M640 4680 l0 -150 185 0 185 0 0 -1157 c0 -637 5 -1214 10 -1283 32
-445 222 -810 575 -1107 l50 -42 -822 -1 -823 0 0 -150 0 -150 909 0 909 0 16
-46 c48 -141 169 -252 316 -290 122 -31 260 -6 363 65 l47 32 44 -30 c244
-168 587 -57 682 223 l16 46 909 0 909 0 0 150 0 150 -822 0 -823 1 45 36 c86
69 235 229 300 321 166 235 258 496 280 792 6 78 10 624 10 1288 l0 1152 185
0 185 0 0 150 0 150 -1920 0 -1920 0 0 -150z m911 -165 c403 -70 722 -365 826
-763 19 -75 26 -131 30 -249 l6 -153 148 0 149 0 0 113 c0 295 93 541 282 742
187 200 469 325 735 325 l75 0 -5 -367 c-4 -318 -8 -380 -25 -458 -55 -251
-154 -436 -329 -616 -149 -153 -299 -248 -498 -315 -637 -213 -1330 127 -1559
764 -59 164 -67 236 -73 630 l-6 362 80 0 c44 0 118 -7 164 -15z m1241 -89
c-82 -84 -198 -237 -226 -298 -5 -10 -7 -10 -12 1 -27 58 -145 214 -228 299
l-99 102 333 0 333 0 -101 -104z m1015 -1916 c-4 -420 -7 -474 -25 -558 -30
-135 -58 -214 -118 -332 -88 -173 -209 -314 -368 -432 l-78 -58 -47 43 c-99
93 -211 133 -341 124 -84 -6 -140 -25 -218 -74 l-53 -33 -43 30 c-174 119
-403 102 -560 -41 l-54 -49 -63 47 c-257 188 -424 438 -495 743 -26 112 -35
313 -32 719 l3 394 74 -87 c221 -260 548 -447 896 -512 134 -25 409 -26 545
-1 348 64 675 254 903 525 l72 86 3 -35 c2 -19 2 -243 -1 -499z m-1477 -1530
c60 -30 80 -78 80 -187 0 -103 -22 -153 -80 -185 -76 -42 -187 1 -211 81 -6
20 -10 78 -8 127 3 72 8 95 26 120 45 62 123 80 193 44z m617 -8 c47 -34 63
-78 63 -177 0 -60 -5 -98 -16 -121 -50 -106 -203 -110 -261 -8 -19 33 -23 54
-22 129 0 107 16 145 75 182 48 30 116 27 161 -5z"/>
</g>
</svg>
